<svg width="9" height="15" viewBox="0 0 9 15" fill="none" xmlns="http://www.w3.org/2000/svg">
<path d="M5.49996 5.0965V3.24323C5.49996 2.73173 5.94796 2.31659 6.49995 2.31659H7.49995V0H5.49996C3.84297 0 2.49998 1.24447 2.49998 2.77991V5.0965H0.5V7.4131H2.49998V14.8262H5.49996V7.4131H7.49995L8.49994 5.0965H5.49996Z" fill="#559490"/>
<path d="M5.49996 5.0965V3.24323C5.49996 2.73173 5.94796 2.31659 6.49995 2.31659H7.49995V0H5.49996C3.84297 0 2.49998 1.24447 2.49998 2.77991V5.0965H0.5V7.4131H2.49998V14.8262H5.49996V7.4131H7.49995L8.49994 5.0965H5.49996Z" fill="white" fill-opacity="0.9"/>
</svg>
