<svg width="17" height="15" viewBox="0 0 17 15" fill="none" xmlns="http://www.w3.org/2000/svg">
<path fill-rule="evenodd" clip-rule="evenodd" d="M4 1.62174C4 2.51733 3.2165 3.24335 2.25 3.24335C1.2835 3.24335 0.5 2.51733 0.5 1.62174C0.5 0.726144 1.2835 0.00012207 2.25 0.00012207C3.2165 0.00012207 4 0.726144 4 1.62174ZM0.5 4.63306H4.078V14.8261H0.5V4.63306ZM13.8249 4.75259C13.8122 4.74889 13.7998 4.74508 13.7873 4.74127C13.7624 4.73365 13.7375 4.72603 13.7109 4.71923C13.6629 4.70904 13.6149 4.7007 13.5659 4.69329C13.3759 4.65808 13.1679 4.63306 12.9239 4.63306C10.8379 4.63306 9.51487 6.03877 9.07887 6.58177V4.63306H5.50087V14.8261H9.07887V9.26624C9.07887 9.26624 11.7829 5.77653 12.9239 8.33961V14.8261H16.5009V7.94764C16.5009 6.40757 15.3619 5.12417 13.8249 4.75259Z" fill="#559490"/>
<path fill-rule="evenodd" clip-rule="evenodd" d="M4 1.62174C4 2.51733 3.2165 3.24335 2.25 3.24335C1.2835 3.24335 0.5 2.51733 0.5 1.62174C0.5 0.726144 1.2835 0.00012207 2.25 0.00012207C3.2165 0.00012207 4 0.726144 4 1.62174ZM0.5 4.63306H4.078V14.8261H0.5V4.63306ZM13.8249 4.75259C13.8122 4.74889 13.7998 4.74508 13.7873 4.74127C13.7624 4.73365 13.7375 4.72603 13.7109 4.71923C13.6629 4.70904 13.6149 4.7007 13.5659 4.69329C13.3759 4.65808 13.1679 4.63306 12.9239 4.63306C10.8379 4.63306 9.51487 6.03877 9.07887 6.58177V4.63306H5.50087V14.8261H9.07887V9.26624C9.07887 9.26624 11.7829 5.77653 12.9239 8.33961V14.8261H16.5009V7.94764C16.5009 6.40757 15.3619 5.12417 13.8249 4.75259Z" fill="white" fill-opacity="0.9"/>
</svg>
