<svg width="17" height="13" viewBox="0 0 17 13" fill="none" xmlns="http://www.w3.org/2000/svg">
<path d="M16.501 1.81599C15.906 2.05784 15.272 2.21815 14.611 2.29599C15.291 1.91977 15.81 1.32858 16.054 0.615992C15.42 0.966261 14.72 1.21367 13.974 1.35174C13.372 0.757768 12.514 0.389893 11.578 0.389893C9.76198 0.389893 8.29998 1.75576 8.29998 3.43019C8.29998 3.67112 8.32198 3.90277 8.37598 4.12331C5.64898 4.00007 3.23598 2.78896 1.61498 0.944022C1.33198 1.399 1.16598 1.91977 1.16598 2.48039C1.16598 3.53305 1.75098 4.46617 2.62298 5.0064C2.09598 4.99713 1.57898 4.85536 1.14098 4.63204C1.14098 4.6413 1.14098 4.65335 1.14098 4.6654C1.14098 6.14246 2.27798 7.36932 3.76898 7.65195C3.50198 7.71959 3.21098 7.75203 2.90898 7.75203C2.69898 7.75203 2.48698 7.74091 2.28798 7.70013C2.71298 8.90384 3.91898 9.78877 5.35298 9.8175C4.23698 10.6265 2.81998 11.1139 1.28598 11.1139C1.01698 11.1139 0.758977 11.1027 0.500977 11.0722C1.95398 11.9404 3.67598 12.4362 5.53298 12.4362C11.569 12.4362 14.869 7.80299 14.869 3.78695C14.869 3.65258 14.864 3.52285 14.857 3.39405C15.508 2.96594 16.055 2.43127 16.501 1.81599Z" fill="#559490"/>
<path d="M16.501 1.81599C15.906 2.05784 15.272 2.21815 14.611 2.29599C15.291 1.91977 15.81 1.32858 16.054 0.615992C15.42 0.966261 14.72 1.21367 13.974 1.35174C13.372 0.757768 12.514 0.389893 11.578 0.389893C9.76198 0.389893 8.29998 1.75576 8.29998 3.43019C8.29998 3.67112 8.32198 3.90277 8.37598 4.12331C5.64898 4.00007 3.23598 2.78896 1.61498 0.944022C1.33198 1.399 1.16598 1.91977 1.16598 2.48039C1.16598 3.53305 1.75098 4.46617 2.62298 5.0064C2.09598 4.99713 1.57898 4.85536 1.14098 4.63204C1.14098 4.6413 1.14098 4.65335 1.14098 4.6654C1.14098 6.14246 2.27798 7.36932 3.76898 7.65195C3.50198 7.71959 3.21098 7.75203 2.90898 7.75203C2.69898 7.75203 2.48698 7.74091 2.28798 7.70013C2.71298 8.90384 3.91898 9.78877 5.35298 9.8175C4.23698 10.6265 2.81998 11.1139 1.28598 11.1139C1.01698 11.1139 0.758977 11.1027 0.500977 11.0722C1.95398 11.9404 3.67598 12.4362 5.53298 12.4362C11.569 12.4362 14.869 7.80299 14.869 3.78695C14.869 3.65258 14.864 3.52285 14.857 3.39405C15.508 2.96594 16.055 2.43127 16.501 1.81599Z" fill="white" fill-opacity="0.9"/>
</svg>
