<svg width="17" height="11" viewBox="0 0 17 11" fill="none" xmlns="http://www.w3.org/2000/svg">
<path fill-rule="evenodd" clip-rule="evenodd" d="M13.9569 0.401901C14.9159 0.451939 15.3869 0.583522 15.8209 1.29889C16.2729 2.01332 16.5009 3.2439 16.5009 5.4113V5.41408V5.41872C16.5009 7.57593 16.2729 8.81577 15.8219 9.52279C15.3879 10.2382 14.9169 10.3679 13.9579 10.4281C12.9989 10.4791 10.5899 10.5097 8.50292 10.5097C6.41193 10.5097 4.00195 10.4791 3.04396 10.4272C2.08696 10.367 1.61597 10.2372 1.17797 9.52186C0.730975 8.81484 0.500977 7.575 0.500977 5.41779V5.41594V5.41316V5.41038C0.500977 3.2439 0.730975 2.01332 1.17797 1.29889C1.61597 0.582595 2.08796 0.451939 3.04496 0.400974C4.00195 0.34167 6.41193 0.31665 8.50292 0.31665C10.5899 0.31665 12.9989 0.34167 13.9569 0.401901ZM11.5018 5.41344L6.50187 2.63353V8.19335L11.5018 5.41344Z" fill="#559490"/>
<path fill-rule="evenodd" clip-rule="evenodd" d="M13.9569 0.401901C14.9159 0.451939 15.3869 0.583522 15.8209 1.29889C16.2729 2.01332 16.5009 3.2439 16.5009 5.4113V5.41408V5.41872C16.5009 7.57593 16.2729 8.81577 15.8219 9.52279C15.3879 10.2382 14.9169 10.3679 13.9579 10.4281C12.9989 10.4791 10.5899 10.5097 8.50292 10.5097C6.41193 10.5097 4.00195 10.4791 3.04396 10.4272C2.08696 10.367 1.61597 10.2372 1.17797 9.52186C0.730975 8.81484 0.500977 7.575 0.500977 5.41779V5.41594V5.41316V5.41038C0.500977 3.2439 0.730975 2.01332 1.17797 1.29889C1.61597 0.582595 2.08796 0.451939 3.04496 0.400974C4.00195 0.34167 6.41193 0.31665 8.50292 0.31665C10.5899 0.31665 12.9989 0.34167 13.9569 0.401901ZM11.5018 5.41344L6.50187 2.63353V8.19335L11.5018 5.41344Z" fill="white" fill-opacity="0.9"/>
</svg>
